<svg xmlns="http://www.w3.org/2000/svg" xmlns:xlink="http://www.w3.org/1999/xlink" width="500" zoomAndPan="magnify" viewBox="0 0 375 374.999991" height="500" preserveAspectRatio="xMidYMid meet" version="1.0"><defs><clipPath id="id1"><path d="M 46 82 L 316 82 L 316 289 L 46 289 Z M 46 82 " clip-rule="nonzero"/></clipPath><clipPath id="id2"><path d="M 40.046875 121.9375 L 305.828125 74.398438 L 337.785156 253.066406 L 72.003906 300.601562 Z M 40.046875 121.9375 " clip-rule="nonzero"/></clipPath><clipPath id="id3"><path d="M 40.046875 121.9375 L 305.828125 74.398438 L 337.785156 253.066406 L 72.003906 300.601562 Z M 40.046875 121.9375 " clip-rule="nonzero"/></clipPath><clipPath id="id4"><path d="M 56 88 L 327 88 L 327 298 L 56 298 Z M 56 88 " clip-rule="nonzero"/></clipPath><clipPath id="id5"><path d="M 40.046875 121.9375 L 305.828125 74.398438 L 337.785156 253.066406 L 72.003906 300.601562 Z M 40.046875 121.9375 " clip-rule="nonzero"/></clipPath><clipPath id="id6"><path d="M 40.046875 121.9375 L 305.828125 74.398438 L 337.785156 253.066406 L 72.003906 300.601562 Z M 40.046875 121.9375 " clip-rule="nonzero"/></clipPath><clipPath id="id7"><path d="M 60 77 L 333 77 L 333 288 L 60 288 Z M 60 77 " clip-rule="nonzero"/></clipPath><clipPath id="id8"><path d="M 40.046875 121.9375 L 305.828125 74.398438 L 337.785156 253.066406 L 72.003906 300.601562 Z M 40.046875 121.9375 " clip-rule="nonzero"/></clipPath><clipPath id="id9"><path d="M 40.046875 121.9375 L 305.828125 74.398438 L 337.785156 253.066406 L 72.003906 300.601562 Z M 40.046875 121.9375 " clip-rule="nonzero"/></clipPath><clipPath id="id10"><path d="M 94 58.839844 L 253.777344 58.839844 L 253.777344 313.089844 L 94 313.089844 Z M 94 58.839844 " clip-rule="nonzero"/></clipPath></defs><rect x="-37.5" width="450" fill="#ffffff" y="-37.499999" height="449.999989" fill-opacity="1"/><rect x="-37.5" width="450" fill="#ffffff" y="-37.499999" height="449.999989" fill-opacity="1"/><rect x="-37.5" width="450" fill="#ffffff" y="-37.499999" height="449.999989" fill-opacity="1"/><rect x="-37.5" width="450" fill="#ffffff" y="-37.499999" height="449.999989" fill-opacity="1"/><g clip-path="url(#id1)"><g clip-path="url(#id2)"><g clip-path="url(#id3)"><path fill="#adc3c6" d="M 46.832031 137.703125 C 59.398438 132.554688 142.261719 116.527344 166.59375 132.113281 C 166.59375 132.113281 197.507812 94.101562 278.148438 82.472656 L 315.941406 227.28125 L 209.949219 256.210938 C 209.949219 256.210938 199.582031 268.746094 184.050781 262.8125 C 184.050781 262.8125 84.042969 287.820312 70.734375 288.503906 C 68.480469 280.800781 46.832031 137.703125 46.832031 137.703125 Z M 46.832031 137.703125 " fill-opacity="1" fill-rule="nonzero"/></g></g></g><g clip-path="url(#id4)"><g clip-path="url(#id5)"><g clip-path="url(#id6)"><path fill="#adc3c6" d="M 56.3125 146.578125 C 68.796875 141.28125 151.429688 124.253906 175.988281 139.582031 C 175.988281 139.582031 206.457031 101.210938 286.921875 88.628906 L 326.441406 232.964844 L 220.78125 263.144531 C 220.78125 263.144531 210.550781 275.820312 194.984375 270.003906 C 194.984375 270.003906 95.292969 296.160156 82.019531 297.054688 C 79.667969 289.425781 56.3125 146.578125 56.3125 146.578125 Z M 56.3125 146.578125 " fill-opacity="1" fill-rule="nonzero"/></g></g></g><g clip-path="url(#id7)"><g clip-path="url(#id8)"><g clip-path="url(#id9)"><path fill="#fee3d8" d="M 292.597656 77.753906 L 291.90625 77.875 C 250.199219 84.351562 222.144531 97.914062 205.941406 108.152344 C 190.523438 117.867188 182.769531 126.316406 180.925781 128.566406 C 155.601562 113.867188 74.035156 130.429688 61.085938 135.867188 L 60.476562 136.140625 L 60.589844 136.777344 C 61.394531 141.890625 79.179688 250.511719 84.8125 280.179688 C 85.539062 283.9375 86.039062 286.421875 86.308594 287.304688 L 86.472656 287.933594 L 87.121094 287.871094 C 88.253906 287.777344 90.019531 287.519531 92.25 287.121094 C 115.78125 282.910156 193.910156 262.472656 199.976562 260.839844 C 214.675781 266.101562 224.835938 255.464844 226.296875 253.832031 L 331.703125 223.75 L 332.488281 223.554688 Z M 206.890625 109.460938 C 222.847656 99.375 250.449219 86.058594 291.4375 79.546875 L 327.722656 211.917969 C 297.179688 216.78125 228.605469 233.644531 212.058594 254.515625 C 210.578125 247.167969 205.976562 229.09375 200.746094 208.445312 C 192.824219 177.324219 183.90625 142.164062 181.96875 129.804688 C 183.269531 128.199219 191.074219 119.410156 206.890625 109.460938 Z M 62.289062 137.074219 C 76.84375 131.40625 156.117188 115.527344 180.3125 130.042969 C 182.269531 142.511719 191.195312 177.726562 199.121094 208.847656 C 204.515625 230.121094 209.257812 248.664062 210.578125 255.4375 C 182.253906 249.714844 129.402344 263.765625 97.644531 272.242188 C 93.304688 273.402344 89.164062 274.46875 85.652344 275.371094 C 79.410156 241.703125 63.703125 145.914062 62.289062 137.074219 Z M 86.40625 279.894531 Z M 225.648438 252.359375 L 225.382812 252.40625 L 225.199219 252.605469 C 224.796875 253.113281 215.148438 264.753906 200.296875 259.25 L 200.066406 259.183594 L 199.800781 259.230469 C 198.808594 259.515625 103.035156 284.589844 87.640625 286.191406 C 87.398438 285.140625 87.003906 283.238281 86.496094 280.699219 C 87.8125 280.410156 90.476562 279.660156 96.425781 277.992188 C 102.582031 276.234375 110.140625 274.058594 116.222656 272.207031 L 115.777344 270.640625 C 103.914062 274.1875 89.574219 278.285156 86.210938 279.105469 C 86.097656 278.46875 85.972656 277.78125 85.839844 277.035156 C 89.40625 276.125 93.589844 274.992188 97.984375 273.824219 C 130.058594 265.292969 183.753906 251.035156 211.34375 257.273438 L 211.914062 257.390625 L 212.21875 256.953125 C 212.304688 256.828125 212.394531 256.703125 212.480469 256.578125 L 212.488281 256.632812 C 232.667969 245.628906 254.324219 237.972656 276.898438 233.9375 C 277.164062 233.890625 277.429688 233.84375 277.640625 233.804688 L 277.355469 232.210938 C 277.089844 232.257812 276.824219 232.308594 276.613281 232.34375 C 255.101562 236.191406 234.441406 243.28125 215.085938 253.371094 C 234.117188 233.808594 298.828125 218.019531 328.050781 213.449219 L 330.523438 222.375 Z M 286.71875 227.25 L 262.027344 232.925781 L 261.6875 231.34375 L 286.382812 225.667969 C 291.378906 224.5 296.539062 223.304688 301.25 221.144531 L 301.949219 222.609375 C 297.097656 224.902344 291.832031 226.117188 286.71875 227.25 Z M 313.304688 223.261719 C 312.894531 223.117188 312.4375 223.308594 312.21875 223.621094 C 312.175781 223.683594 312.175781 223.683594 312.128906 223.746094 L 287.152344 230.898438 L 287.597656 232.460938 L 312.992188 225.179688 C 313.820312 224.921875 313.875 224.3125 313.902344 224.140625 C 313.992188 223.742188 313.707031 223.355469 313.304688 223.261719 Z M 313.585938 224.527344 C 313.453125 224.714844 313.164062 224.929688 312.816406 224.828125 C 312.648438 224.804688 312.515625 224.664062 312.433594 224.515625 L 313.53125 223.605469 C 313.746094 223.894531 313.75 224.222656 313.585938 224.527344 Z M 196.578125 257.777344 L 196.8125 259.378906 C 196.28125 259.476562 143.199219 267.652344 105 281.167969 L 104.449219 279.625 C 142.757812 266.089844 196.046875 257.875 196.578125 257.777344 Z M 121.53125 270.925781 L 120.085938 270.199219 C 120.328125 269.71875 120.570312 269.238281 137.855469 265.652344 C 146.515625 263.828125 155.679688 262.027344 157.804688 261.644531 L 158.089844 263.238281 C 153.199219 264.113281 123.144531 270.144531 121.300781 271.1875 C 121.300781 271.1875 121.398438 271.113281 121.53125 270.925781 Z M 121.53125 270.925781 " fill-opacity="1" fill-rule="nonzero"/></g></g></g><g clip-path="url(#id10)"><path fill="#000000" d="M 213.277344 90.621094 C 213.277344 108.175781 199.066406 122.402344 181.535156 122.402344 C 164 122.402344 149.789062 108.175781 149.789062 90.621094 C 149.789062 73.066406 164 58.839844 181.535156 58.839844 C 199.066406 58.839844 213.277344 73.066406 213.277344 90.621094 Z M 207.675781 190.546875 C 212.914062 185.140625 221.628906 184.078125 227.507812 189.097656 C 234.183594 194.796875 234.527344 205.039062 228.546875 211.21875 L 207.984375 232.484375 C 207.667969 232.8125 207.304688 233.066406 206.886719 233.246094 C 206.46875 233.421875 206.03125 233.511719 205.578125 233.511719 C 205.121094 233.511719 204.683594 233.421875 204.265625 233.246094 C 203.847656 233.066406 203.484375 232.8125 203.167969 232.484375 L 182.601562 211.21875 C 176.625 205.042969 176.980469 194.796875 183.65625 189.097656 C 189.480469 184.125 198.140625 185.035156 203.484375 190.546875 L 205.578125 192.707031 Z M 127.914062 141.285156 L 96.183594 190.855469 C 92.59375 196.5 94.117188 204.085938 99.585938 207.792969 C 105.058594 211.5 112.410156 209.929688 116 204.28125 C 124.925781 190.339844 133.851562 176.390625 142.773438 162.445312 C 145.609375 158.011719 148.515625 155.96875 151.605469 155.644531 C 152.5625 161.695312 153.480469 167.734375 154.144531 173.902344 L 154.144531 185.675781 C 149.652344 205.222656 145.476562 225.347656 140.5625 244.734375 C 139.535156 248.730469 138.699219 251.964844 142.175781 255.363281 C 144.023438 257.160156 146.027344 257.511719 148.542969 257.511719 L 157.726562 257.472656 L 157.726562 297.199219 C 157.726562 306.15625 164.699219 313.089844 173.597656 313.089844 L 189.46875 313.089844 C 198.59375 313.050781 205.339844 306.296875 205.339844 297.199219 L 205.339844 257.472656 L 229.148438 257.472656 C 234.359375 257.472656 237.816406 254.804688 237.816406 249.402344 L 237.816406 241.457031 C 248.777344 233.328125 253.6875 223.207031 253.6875 209.675781 C 253.6875 181.796875 237.082031 170.074219 221.210938 162.128906 C 216.898438 159.96875 207.980469 152.703125 205.339844 146.238281 C 201.597656 137.0625 202.433594 130.347656 191.734375 130.347656 L 154.144531 130.347656 C 145.070312 130.347656 133.03125 133.238281 127.914062 141.285156 Z M 127.914062 141.285156 " fill-opacity="1" fill-rule="nonzero"/></g></svg>